<svg id="Layer_1" data-name="Layer 1" xmlns="http://www.w3.org/2000/svg" viewBox="0 0 563.58 142.1"><defs><style>.cls-1{fill:#1d1d1b;}</style></defs><title>Artboard 1</title><path class="cls-1" d="M65.2,38.6l-20.33-.37c-4.13.12-8.64.85-11.8,3.17-4.75,3.89-7.31,10.1-9,14.48h-3.9c-.12-5.35,2.2-17.28,5.12-22.27H79.44l1.1,4.5L34.41,105.3l22.27.36c5.6-.12,9.86-1.7,12.78-4.13,4.26-3.78,7.91-10.47,10.47-16.19h4.38c-.61,8.4-3.65,20.08-6.82,25H20.29l-1.1-4.75Z"/><path class="cls-1" d="M116.93,107.25l-.37,3c-6.21-.37-10.59-.37-16.06-.37-4.75,0-9.13,0-14.49.49l-.49-3.16s7.31-1,10.11-5.72c3.89-5,18.62-41.75,25.92-60.5l-.6-2.31a52,52,0,0,0,10.1-6.33c8.52,21.18,21.54,55,28.36,69.38,2,4.14,9.61,5.48,9.61,5.48l-.61,3c-5.11-.24-10.83-.37-15.94-.37-5.72,0-12.29.13-18,.37l-.6-3c5.6-1,10.83-2.68,10.83-5.72,0-.25-3.29-8.77-7.06-19H112.3c-3.65,9.74-6.57,17.89-6.57,18.87C105.73,104.81,109.38,106.27,116.93,107.25Zm-2.44-30.31h20.94c-5.11-13.39-10.35-27.39-10.35-27.39Z"/><path class="cls-1" d="M205.29,107.37l-.48,2.92s-10.84-.49-16.44-.49-16.19.49-16.19.49l-.48-2.92c3.77-.73,7.91-2,8.76-4.14,1.71-3.41,1.71-25,1.71-31.52s-.37-27.27-1.1-29.7c-1-3.29-5.35-4.63-9.62-5.36l.49-3h36c15,0,24.71,8.52,24.71,20.69,0,16.31-15,23.74-29.34,23.74a41.07,41.07,0,0,1-8.76-.86c.12,8.89.49,22.89,1.1,24.83C196.65,105.3,201,106.64,205.29,107.37Zm14.12-51.49c0-8.64-5.23-17.4-15.82-17.4H201.4c-2.56,0-3.9-.13-5.11.73a3.68,3.68,0,0,0-1.1,1.34c-1,3-.61,24.7-.61,31.16a28.68,28.68,0,0,0,7.18.85C210.77,72.56,219.41,68.3,219.41,55.88Z"/><path class="cls-1" d="M302.54,107.37l-.48,2.92s-10.84-.49-16.44-.49-16.19.49-16.19.49l-.48-2.92c3.77-.73,7.91-2,8.76-4.14,1.7-3.41,1.7-25,1.7-31.52s-.36-27.27-1.09-29.7c-1-3.29-5.36-4.63-9.62-5.36l.49-3s10.83.48,16.43.48,16.19-.48,16.19-.48l.49,3c-3.66.61-7.91,2.31-9.13,5.11-1,3-1.34,23.49-1.34,29.95s.36,27.87,1.1,30.3C293.9,105.3,298.28,106.64,302.54,107.37Z"/><path class="cls-1" d="M369.48,36.53l.49-2.92s8,.24,13.63.24,14.12-.24,14.12-.24l.49,2.92c-3.89.73-8,2.19-9.25,5.11-.85,1.7-1,39.8-1,60v12.29H383.6L330.78,49.19V71.71c0,6.45.24,27.87,1,30.3.85,3.29,5.11,4.63,8.89,5.12l-.49,2.92s-8.16-.25-13.76-.25-14.24.49-14.24.49l-.48-2.92c3.77-.73,7.91-2.19,9.12-5.11s1.22-24,1.22-30.55c0-6.33-.48-25.93-1-29.22-1.1-3.89-6.09-5.23-9.74-5.84l.49-3c4.75.24,9,.36,12.17.36s6.57-.12,9.86-.36L372.4,78.4c2.68,3.65,5.12,6.57,6.82,10.59-.12-11.69-.48-45.89-.85-47.35C377.52,38.35,373.26,37,369.48,36.53Z"/><path class="cls-1" d="M442.51,107.37l-.48,2.92s-13.27-.49-18.87-.49-16.19.49-16.19.49l-.49-2.92c3.77-.73,7.91-2,8.76-4.14,1.71-3.41,1.71-25,1.71-31.52s-.37-27.27-1.1-29.7c-1-3.29-5.35-4.63-9.61-5.36l.49-3H463c.49,5.11-.85,13.14-2.07,19.11l-4.26-.25c.12-4.5-1-9-3.29-10.95-3-2.56-8.39-2.8-13.63-2.8-5.47,0-7.79,0-9,.73a4.21,4.21,0,0,0-.73,1.22c-.6,1.46-.73,8.27-.73,15.33,0,3.9.13,7.79.13,11v1.46c8.27-.24,18.5-.49,20-1,2.8-.73,4.26-5,4.5-7.79l4.5.74s-.24,4.86-.24,10.46.49,12.17.49,12.17l-4.51.74c-.73-4-2.19-8.53-5-9.5-1.34-.61-11.44-.85-19.71-1,0,7.67.36,26.41,1.09,28.72C431.43,105.3,438.25,106.64,442.51,107.37Z"/><path class="cls-1" d="M510.43,32.39c22,0,39.8,15.09,39.8,37.12,0,22.89-19.11,42-39.8,42-22.64,0-40.17-15.58-40.17-38.1A40.76,40.76,0,0,1,510.43,32.39Zm1.22,72.18c11,0,24.83-10.23,24.83-32.14,0-18.25-12.17-33.71-27.39-33.71-13.15,0-24.83,12.41-24.83,32.13C484.26,89,495.82,104.57,511.65,104.57Z"/><path class="cls-1" d="M544.87,130.31V119.39H555v-2.74H9.59V133H555v-2.73Zm-521.19,0H12.75V119.39H23.68Zm17.16,0H29.92V119.39H40.84Zm17.17,0H47.08V119.39H58Zm17.16,0H64.25V119.39H75.17Zm17.17,0H81.41V119.39H92.34Zm17.16,0H98.58V119.39H109.5Zm17.17,0H115.74V119.39h10.93Zm17.16,0H132.91V119.39h10.92Zm17.17,0H150.07V119.39H161Zm17.16,0H167.24V119.39h10.92Zm17.17,0H184.4V119.39h10.93Zm17.16,0H201.57V119.39h10.92Zm17.17,0H218.73V119.39h10.93Zm17.16,0H235.9V119.39h10.92Zm17.17,0H253.06V119.39H264Zm17.16,0H270.23V119.39h10.92Zm17.17,0H287.39V119.39h10.93Zm17.16,0H304.56V119.39h10.92Zm17.17,0H321.72V119.39h10.93Zm17.16,0H338.89V119.39h10.92Zm17.17,0H356.05V119.39H367Zm17.16,0H373.22V119.39h10.92Zm17.17,0H390.38V119.39h10.93Zm17.16,0H407.55V119.39h10.92Zm17.17,0H424.71V119.39h10.93Zm17.16,0H441.88V119.39H452.8Zm17.17,0H459V119.39H470Zm17.16,0H476.21V119.39h10.92Zm17.17,0H493.37V119.39H504.3Zm17.16,0H510.54V119.39h10.92Zm17.17,0H527.7V119.39h10.93Z"/><path class="cls-1" d="M543.74,24.61V13.68h10.1V11H8.46V27.34H553.84V24.61Zm-521.19,0H11.62V13.68H22.55Zm17.16,0H28.79V13.68H39.71Zm17.17,0H46V13.68H56.88Zm17.16,0H63.12V13.68H74Zm17.17,0H80.28V13.68H91.21Zm17.16,0H97.45V13.68h10.92Zm17.17,0H114.61V13.68h10.93Zm17.16,0H131.78V13.68H142.7Zm17.17,0H148.94V13.68h10.93Zm17.16,0H166.11V13.68H177Zm17.17,0H183.27V13.68H194.2Zm17.16,0H200.44V13.68h10.92Zm17.17,0H217.6V13.68h10.93Zm17.16,0H234.77V13.68h10.92Zm17.17,0H251.93V13.68h10.93Zm17.16,0H269.1V13.68H280Zm17.17,0H286.26V13.68h10.93Zm17.16,0H303.43V13.68h10.92Zm17.17,0H320.59V13.68h10.93Zm17.16,0H337.76V13.68h10.92Zm17.17,0H354.92V13.68h10.93Zm17.16,0H372.09V13.68H383Zm17.17,0H389.25V13.68h10.93Zm17.16,0H406.42V13.68h10.92Zm17.17,0H423.58V13.68h10.93Zm17.16,0H440.75V13.68h10.92Zm17.17,0H457.91V13.68h10.93Zm17.16,0H475.08V13.68H486Zm17.17,0H492.24V13.68h10.93Zm17.16,0H509.41V13.68h10.92Zm17.17,0H526.57V13.68H537.5Z"/></svg>